<svg width="1552" height="423" viewBox="0 0 1552 423" fill="none" xmlns="http://www.w3.org/2000/svg">
<g clip-path="url(#clip0)">
<rect width="1552" height="423" fill="white"/>
<path d="M368.484 314.641C357.609 314.641 348.281 313.328 340.5 310.703C332.719 308.172 326.25 304.141 321.094 298.609C315.844 292.984 311.906 285.672 309.281 276.672C306.75 267.578 305.484 256.609 305.484 243.766C305.484 229.234 307.172 214.094 310.547 198.344C314.484 180.062 320.109 163.703 327.422 149.266C335.953 132.484 346.312 119.406 358.5 110.031C372.375 99.3438 388.219 94 406.031 94C420.375 94 431.766 97 440.203 103C449.484 109.563 454.125 119.406 454.125 132.531C454.125 140.781 452.625 147.109 449.625 151.516C446.062 156.578 440.812 159.109 433.875 159.109C430.969 159.109 428.109 158.594 425.297 157.562C422.578 156.531 420 154.562 417.562 151.656C419.25 150.812 420.891 149.5 422.484 147.719C424.078 145.844 425.484 143.688 426.703 141.25C429.422 135.812 430.781 130.422 430.781 125.078C430.781 119.922 429.469 115.844 426.844 112.844C423.75 109.281 419.203 107.5 413.203 107.5C408.047 107.5 402.938 109.422 397.875 113.266C392.906 117.016 388.125 122.359 383.531 129.297C379.125 135.953 375.047 143.734 371.297 152.641C367.547 161.547 364.359 171.016 361.734 181.047C359.109 191.172 357.047 201.484 355.547 211.984C354.047 222.484 353.297 232.516 353.297 242.078C353.297 249.203 353.812 255.438 354.844 260.781C355.969 266.125 357.75 270.672 360.188 274.422C365.531 282.766 374.766 286.938 387.891 286.938C399.141 286.938 409.594 284.453 419.25 279.484C428.906 274.422 437.156 267.297 444 258.109L450.609 261.062C446.953 270.25 441.891 278.312 435.422 285.25C429.047 292.094 421.828 297.766 413.766 302.266C406.359 306.391 398.719 309.484 390.844 311.547C382.969 313.609 375.516 314.641 368.484 314.641ZM462.703 166H504.188L500.531 183.859C507.094 178.047 512.438 173.922 516.562 171.484C522.938 167.828 529.172 166 535.266 166C541.453 166 546.422 168.203 550.172 172.609C551.859 174.578 553.125 176.875 553.969 179.5C554.812 182.031 555.234 184.75 555.234 187.656C555.234 190.281 554.812 192.812 553.969 195.25C553.125 197.688 551.859 199.891 550.172 201.859C548.297 203.922 546 205.562 543.281 206.781C540.656 208 537.703 208.609 534.422 208.609C531.891 208.609 529.875 208.188 528.375 207.344C526.875 206.5 525.703 205.281 524.859 203.688C524.109 202.094 523.594 200.547 523.312 199.047C522.469 195.016 521.625 192.344 520.781 191.031C520.125 190.094 519.094 189.625 517.688 189.625C513.656 189.625 510.234 190.469 507.422 192.156C504.609 193.844 501.047 196.656 496.734 200.594L473.672 310H432.188L462.703 166ZM599.531 150.391C596.438 150.391 593.484 149.828 590.672 148.703C587.859 147.484 585.422 145.844 583.359 143.781C581.297 141.812 579.656 139.422 578.438 136.609C577.312 133.797 576.75 130.844 576.75 127.75C576.75 124.656 577.312 121.703 578.438 118.891C579.656 116.078 581.297 113.594 583.359 111.438C585.422 109.281 587.859 107.641 590.672 106.516C593.484 105.297 596.438 104.688 599.531 104.688C602.625 104.688 605.578 105.297 608.391 106.516C611.203 107.641 613.688 109.281 615.844 111.438C618 113.594 619.641 116.078 620.766 118.891C621.984 121.703 622.594 124.656 622.594 127.75C622.594 130.844 621.984 133.797 620.766 136.609C619.641 139.422 618 141.812 615.844 143.781C613.688 145.844 611.203 147.484 608.391 148.703C605.578 149.828 602.625 150.391 599.531 150.391ZM579.984 311.688C570.797 311.688 563.531 308.969 558.188 303.531C552.188 297.531 549.188 288.766 549.188 277.234C549.188 271.797 549.938 265.516 551.438 258.391L570.984 166H612.469L591.797 263.875C591.047 266.312 590.672 269.406 590.672 273.156C590.672 277.094 591.562 279.859 593.344 281.453C595.219 283.047 598.219 283.844 602.344 283.844C605.156 283.844 607.875 283.234 610.5 282.016C613.219 280.703 615.703 278.922 617.953 276.672C622.547 272.078 626.016 265.984 628.359 258.391H640.453C635.297 272.922 628.828 284.5 621.047 293.125C614.484 300.156 607.078 305.219 598.828 308.312C592.828 310.562 586.547 311.688 579.984 311.688ZM661.266 311.688C654.328 311.688 648.188 310.656 642.844 308.594C637.5 306.438 633 303.484 629.344 299.734C625.969 296.266 623.438 292.422 621.75 288.203C620.062 283.891 619.219 279.438 619.219 274.844C619.219 268.562 620.812 262.891 624 257.828C626.812 253.328 630.328 250.094 634.547 248.125C642.047 234.812 648.562 221.312 654.094 207.625C659.625 193.938 664.922 178.984 669.984 162.766L712.594 157.141C713.719 181.516 714.75 200.219 715.688 213.25C716.625 226.656 717.422 236.5 718.078 242.781C718.641 250.094 718.922 256.469 718.922 261.906C718.922 266.781 718.547 270.438 717.797 272.875C726.422 267.812 733.312 262.984 738.469 258.391H750.562C743.719 266.359 736.641 273.203 729.328 278.922C722.109 284.641 714.516 289.797 706.547 294.391C700.828 300.391 693.656 304.844 685.031 307.75C677.531 310.375 669.609 311.688 661.266 311.688ZM652.125 288.906C659.344 288.906 665.109 286.938 669.422 283C674.578 278.312 677.156 271.375 677.156 262.188C677.156 258.344 676.922 253.516 676.453 247.703L675.75 239.125C674.906 231.719 674.062 223.141 673.219 213.391L671.672 193.984C668.953 202.703 665.719 211.375 661.969 220C658.219 228.531 653.672 238 648.328 248.406C652.734 250.844 654.938 254.172 654.938 258.391C654.938 262.141 653.812 265.375 651.562 268.094C649.125 271.094 646.031 272.594 642.281 272.594C640.406 272.594 638.812 272.359 637.5 271.891C636.281 271.328 635.297 270.297 634.547 268.797C634.547 275.734 635.906 280.844 638.625 284.125C641.344 287.312 645.844 288.906 652.125 288.906ZM760.406 155.312H801.891L797.25 176.969C807 168.719 818.203 164.594 830.859 164.594C841.641 164.594 849.984 167.875 855.891 174.438C862.641 182.125 866.016 193.984 866.016 210.016C866.016 225.484 864.047 240.016 860.109 253.609C855.141 270.953 847.922 284.406 838.453 293.969C826.828 305.781 812.391 311.688 795.141 311.688C788.484 311.688 783 310.656 778.688 308.594C775.406 307.094 772.734 304.703 770.672 301.422L755.766 371.594L712.312 382L760.406 155.312ZM786.281 286.656C795.562 286.656 803.531 281.922 810.188 272.453C815.438 265.047 819.656 254.641 822.844 241.234C825.375 230.453 826.641 219.766 826.641 209.172C826.641 199.703 824.906 192.953 821.438 188.922C819.188 186.484 816.094 185.266 812.156 185.266C808.688 185.266 805.172 186.484 801.609 188.922C798.047 191.359 794.953 194.875 792.328 199.469L775.312 280.047C775.969 281.922 777.188 283.516 778.969 284.828C780.844 286.047 783.281 286.656 786.281 286.656ZM918.047 382C913.547 382 909.328 381.391 905.391 380.172C901.547 379.047 898.219 377.312 895.406 374.969C892.406 372.625 890.062 369.672 888.375 366.109C886.688 362.641 885.844 358.609 885.844 354.016C885.844 343.141 890.953 333.812 901.172 326.031C908.859 320.312 919.406 315.344 932.812 311.125L936.328 295.656C930.703 301.844 924.609 306.203 918.047 308.734C912.984 310.703 907.547 311.688 901.734 311.688C892.547 311.688 885.281 308.969 879.938 303.531C873.938 297.531 870.938 288.766 870.938 277.234C870.938 271.797 871.688 265.516 873.188 258.391L892.734 166H934.219L913.547 263.875C912.984 266.219 912.703 268.656 912.703 271.188C912.703 274.844 913.312 277.75 914.531 279.906C915.938 282.531 918.188 283.844 921.281 283.844C926.344 283.844 930.891 281.594 934.922 277.094C938.391 273.25 941.344 267.625 943.781 260.219L963.891 166H1005.38L976.828 299.594C985.922 296.594 993.188 292.094 998.625 286.094C1004.53 279.625 1009.36 270.391 1013.11 258.391H1025.2C1020.05 275.453 1012.36 288.625 1002.14 297.906C994.641 304.656 985.359 309.438 974.297 312.25L969.938 333.062C966.281 351.438 958.969 364.75 948 373C940.031 379 930.047 382 918.047 382ZM911.438 359.5C914.344 359.5 917.438 357.391 920.719 353.172C923.906 349.047 926.391 342.625 928.172 333.906L929.859 325.609C921.141 328.891 914.625 332.219 910.312 335.594C904.594 339.906 901.734 344.734 901.734 350.078C901.734 352.609 902.531 354.719 904.125 356.406C905.906 358.469 908.344 359.5 911.438 359.5ZM1187.2 314.922C1179.23 314.922 1172.95 313.562 1168.36 310.844C1161.89 307.094 1158.66 301.328 1158.66 293.547C1158.66 288.391 1159.88 282.812 1162.31 276.812C1165.88 280.656 1169.16 283.375 1172.16 284.969C1175.16 286.469 1178.34 287.219 1181.72 287.219C1191.28 287.219 1198.64 281.312 1203.8 269.5C1205.95 264.719 1207.55 259.328 1208.58 253.328C1209.61 247.234 1210.12 241.281 1210.12 235.469C1210.12 224.406 1208.2 215.781 1204.36 209.594C1199.77 202.375 1192.59 198.766 1182.84 198.766C1177.69 198.766 1173.28 199.094 1169.62 199.75L1146 310H1104.52L1143.61 126.766L1186.22 121.141L1172.72 184.984H1174.41C1179.94 184.984 1185.23 183.625 1190.3 180.906C1195.36 178.188 1199.81 174.484 1203.66 169.797C1207.41 165.203 1210.36 160.141 1212.52 154.609C1214.77 149.078 1215.89 143.641 1215.89 138.297C1215.89 134.172 1215.14 130.281 1213.64 126.625C1212.23 122.875 1210.08 119.594 1207.17 116.781C1200.52 110.406 1190.77 107.219 1177.92 107.219C1166.11 107.219 1154.91 109.75 1144.31 114.812C1132.5 120.531 1123.45 128.266 1117.17 138.016C1109.67 149.359 1105.92 162.438 1105.92 177.25C1105.92 183.438 1106.62 188.219 1108.03 191.594C1108.41 192.812 1108.88 193.891 1109.44 194.828C1109.81 195.484 1110 196.141 1110 196.797C1099.78 196.797 1092.09 194.781 1086.94 190.75C1081.78 186.625 1079.2 179.828 1079.2 170.359C1079.2 157.234 1084.22 144.719 1094.25 132.812C1098.94 127.188 1104.52 122.031 1110.98 117.344C1117.55 112.562 1124.72 108.438 1132.5 104.969C1148.91 97.6562 1165.97 94 1183.69 94C1203.47 94 1218.98 98.6875 1230.23 108.062C1235.11 112.187 1238.77 117.016 1241.2 122.547C1243.73 127.984 1245 133.75 1245 139.844C1245 148.938 1242.56 157.375 1237.69 165.156C1232.25 173.781 1225.08 180.578 1216.17 185.547C1227.7 187.609 1236.47 193.188 1242.47 202.281C1247.62 210.25 1250.2 220.141 1250.2 231.953C1250.2 236.828 1249.73 242.219 1248.8 248.125C1247.86 254.031 1246.45 259.891 1244.58 265.703C1239.98 280.141 1233.47 291.438 1225.03 299.594C1214.53 309.812 1201.92 314.922 1187.2 314.922ZM1302.52 311.125C1288.27 311.125 1277.25 307.656 1269.47 300.719C1260.75 293.031 1256.39 281.359 1256.39 265.703C1256.39 259.797 1257 253.281 1258.22 246.156C1259.44 238.938 1261.31 231.672 1263.84 224.359C1269.66 206.922 1277.95 193 1288.73 182.594C1301.77 169.844 1317.28 163.469 1335.28 163.469C1359.94 163.469 1372.27 178.797 1372.27 209.453V209.734C1372.83 209.922 1373.3 210.016 1373.67 210.016H1375.36C1381.73 210.016 1389.28 208.234 1398 204.672C1405.69 201.484 1412.95 197.5 1419.8 192.719L1422.33 200.594C1416.7 206.5 1409.44 211.516 1400.53 215.641C1391.72 219.766 1381.97 222.719 1371.28 224.5C1370.16 237.531 1367.62 249.438 1363.69 260.219C1359.75 270.906 1354.69 280.094 1348.5 287.781C1342.41 295.281 1335.42 301.047 1327.55 305.078C1319.67 309.109 1311.33 311.125 1302.52 311.125ZM1314.05 285.25C1317.42 285.25 1320.84 283.75 1324.31 280.75C1327.88 277.656 1331.2 273.391 1334.3 267.953C1337.39 262.516 1340.06 256.141 1342.31 248.828C1344.56 241.516 1346.25 233.688 1347.38 225.344C1344.56 224.594 1342.55 223.188 1341.33 221.125C1340.2 219.062 1339.64 216.438 1339.64 213.25C1339.64 209.312 1340.44 206.031 1342.03 203.406C1343.62 200.781 1345.83 198.859 1348.64 197.641C1348.27 191.547 1347.28 187.188 1345.69 184.562C1344.84 183.25 1343.77 182.312 1342.45 181.75C1341.23 181.188 1339.64 180.906 1337.67 180.906C1331.2 180.906 1324.88 185.781 1318.69 195.531C1312.97 204.344 1308.28 215.219 1304.62 228.156C1301.06 240.812 1299.28 252.062 1299.28 261.906C1299.28 266.688 1299.52 270.578 1299.98 273.578C1300.55 276.578 1301.44 278.922 1302.66 280.609C1303.78 282.297 1305.23 283.516 1307.02 284.266C1308.8 284.922 1311.14 285.25 1314.05 285.25ZM1431.89 382C1427.39 382 1423.17 381.391 1419.23 380.172C1415.39 379.047 1412.06 377.312 1409.25 374.969C1406.25 372.625 1403.91 369.672 1402.22 366.109C1400.53 362.641 1399.69 358.609 1399.69 354.016C1399.69 343.141 1404.8 333.812 1415.02 326.031C1422.7 320.312 1433.25 315.344 1446.66 311.125L1450.17 295.656C1444.55 301.844 1438.45 306.203 1431.89 308.734C1426.83 310.703 1421.39 311.688 1415.58 311.688C1406.39 311.688 1399.12 308.969 1393.78 303.531C1387.78 297.531 1384.78 288.766 1384.78 277.234C1384.78 271.797 1385.53 265.516 1387.03 258.391L1406.58 166H1448.06L1427.39 263.875C1426.83 266.219 1426.55 268.656 1426.55 271.188C1426.55 274.844 1427.16 277.75 1428.38 279.906C1429.78 282.531 1432.03 283.844 1435.12 283.844C1440.19 283.844 1444.73 281.594 1448.77 277.094C1452.23 273.25 1455.19 267.625 1457.62 260.219L1477.73 166H1519.22L1490.67 299.594C1499.77 296.594 1507.03 292.094 1512.47 286.094C1518.38 279.625 1523.2 270.391 1526.95 258.391H1539.05C1533.89 275.453 1526.2 288.625 1515.98 297.906C1508.48 304.656 1499.2 309.438 1488.14 312.25L1483.78 333.062C1480.12 351.438 1472.81 364.75 1461.84 373C1453.88 379 1443.89 382 1431.89 382ZM1425.28 359.5C1428.19 359.5 1431.28 357.391 1434.56 353.172C1437.75 349.047 1440.23 342.625 1442.02 333.906L1443.7 325.609C1434.98 328.891 1428.47 332.219 1424.16 335.594C1418.44 339.906 1415.58 344.734 1415.58 350.078C1415.58 352.609 1416.38 354.719 1417.97 356.406C1419.75 358.469 1422.19 359.5 1425.28 359.5Z" fill="#214187"/>
<path d="M245.805 93.0035L214.167 44.5907C217.416 42.6601 219.6 39.1266 219.6 35.0742C219.6 28.9583 214.641 24 208.525 24H57.4731C51.3572 24 46.3989 28.9583 46.3989 35.0742C46.3989 39.1266 48.5828 42.6608 51.8312 44.5907L20.1936 93.0027C19.0168 94.8041 18.39 96.9097 18.39 99.0611V339.196C18.39 354.548 28.8574 367.496 43.0287 371.292L53.9752 390.722C57.8947 397.678 65.2893 401.999 73.2738 401.999H192.726C200.71 401.999 208.105 397.677 212.024 390.721L222.971 371.292C237.142 367.496 247.609 354.548 247.609 339.196V99.0618C247.609 96.9104 246.982 94.8049 245.805 93.0035ZM77.2724 46.1484H188.726L214.306 85.2914H51.6924L77.2724 46.1484ZM192.725 379.852L73.2716 379.851L69.0878 372.424H196.91L192.725 379.852ZM225.461 339.197C225.46 345.305 220.49 350.276 214.381 350.276H51.6178C45.5086 350.276 40.5385 345.306 40.5385 339.197V107.44H225.461V339.197Z" fill="#214187"/>
<path d="M132.999 150.275C89.025 150.275 53.2494 186.051 53.2494 230.025C53.2494 273.999 89.025 309.775 132.999 309.775C176.973 309.775 212.749 274 212.749 230.026C212.749 186.051 176.973 150.275 132.999 150.275ZM132.999 287.626C101.238 287.626 75.3978 261.786 75.3978 230.025C75.3978 198.263 101.238 172.423 132.999 172.423C164.761 172.423 190.601 198.263 190.601 230.025C190.601 261.786 164.761 287.626 132.999 287.626Z" fill="#214187"/>
</g>
<defs>
<clipPath id="clip0">
<rect width="1552" height="423" fill="white"/>
</clipPath>
</defs>
</svg>
